{
  "accessors": [
    {
      "bufferView": 3,
      "componentType": 5126,
      "count": 5125,
      "max": [
        0.5892149806022644,
        0.33297967910766602,
        1.4366722106933594
      ],
      "min": [
        -0.5892145037651062,
        -0.33258578181266785,
        0.009251713752746582
      ],
      "type": "VEC3"
    },
    {
      "bufferView": 3,
      "byteOffset": 61500,
      "componentType": 5126,
      "count": 5125,
      "max": [
        0.99955034255981445,
        0.99996292591094971,
        1
      ],
      "min": [
        -0.99955010414123535,
        -1,
        -1
      ],
      "type": "VEC3"
    },
    {
      "bufferView": 2,
      "componentType": 5126,
      "count": 5125,
      "max": [
        0.98312801122665405,
        2.9397873878479004
      ],
      "min": [
        -1.4872103929519653,
        0.015305685810744762
      ],
      "type": "VEC2"
    },
    {
      "bufferView": 1,
      "componentType": 5125,
      "count": 20604,
      "max": [
        5124
      ],
      "min": [
        0
      ],
      "type": "SCALAR"
    },
    {
      "bufferView": 3,
      "byteOffset": 123000,
      "componentType": 5126,
      "count": 1380,
      "max": [
        0.65670078992843628,
        1.1787124872207642,
        0.40371420979499817
      ],
      "min": [
        -0.65670078992843628,
        -0.048636045306921005,
        -0.0035396523308008909
      ],
      "type": "VEC3"
    },
    {
      "bufferView": 3,
      "byteOffset": 139560,
      "componentType": 5126,
      "count": 1380,
      "max": [
        1,
        1,
        1
      ],
      "min": [
        -1,
        -1,
        -1
      ],
      "type": "VEC3"
    },
    {
      "bufferView": 2,
      "byteOffset": 41000,
      "componentType": 5126,
      "count": 1380,
      "max": [
        1.0000001192092896,
        1
      ],
      "min": [
        -1.7881393432617188e-07,
        0
      ],
      "type": "VEC2"
    },
    {
      "bufferView": 1,
      "byteOffset": 82416,
      "componentType": 5125,
      "count": 3480,
      "max": [
        1379
      ],
      "min": [
        0
      ],
      "type": "SCALAR"
    },
    {
      "bufferView": 5,
      "componentType": 5126,
      "count": 32,
      "max": [
        1,
        0.73395848274230957,
        1,
        0,
        0.33204406499862671,
        1,
        0.99999159574508667,
        0,
        1,
        0.99994385242462158,
        1,
        0,
        0.39344343543052673,
        0.065352164208889008,
        0.72325563430786133,
        1
      ],
      "min": [
        -0.99964344501495361,
        -0.73396098613739014,
        -0.99999988079071045,
        0,
        -0.99994373321533203,
        -1,
        -0.99999183416366577,
        0,
        -0.9924626350402832,
        -0.32508304715156555,
        -0.99964344501495361,
        0,
        -1.3097209930419922,
        -0.64919173717498779,
        -0.72325563430786133,
        1
      ],
      "type": "MAT4"
    },
    {
      "bufferView": 0,
      "componentType": 5123,
      "count": 5125,
      "max": [
        29,
        29,
        26,
        26
      ],
      "min": [
        1,
        1,
        1,
        3
      ],
      "type": "VEC4"
    },
    {
      "bufferView": 4,
      "componentType": 5126,
      "count": 5125,
      "max": [
        1,
        0.5,
        0.3333333432674408,
        0.25
      ],
      "min": [
        0.25,
        0,
        0,
        0
      ],
      "type": "VEC4"
    }
  ],
  "asset": {
    "extras": {
      "author": "joe_daburca (https://sketchfab.com/joe_daburca)",
      "license": "CC-BY-4.0 (http://creativecommons.org/licenses/by/4.0/)",
      "source": "https://sketchfab.com/3d-models/dropout-bear-80f178fb241541c6933d93b6aefc1087",
      "title": "Dropout Bear"
    },
    "generator": "Sketchfab-9.24.0",
    "version": "2.0"
  },
  "bufferViews": [
    {
      "buffer": 0,
      "byteLength": 41000,
      "byteOffset": 0,
      "byteStride": 8,
      "name": "shortBufferViews",
      "target": 34962
    },
    {
      "buffer": 0,
      "byteLength": 96336,
      "byteOffset": 41000,
      "name": "floatBufferViews",
      "target": 34963
    },
    {
      "buffer": 0,
      "byteLength": 52040,
      "byteOffset": 137336,
      "byteStride": 8,
      "name": "floatBufferViews",
      "target": 34962
    },
    {
      "buffer": 0,
      "byteLength": 156120,
      "byteOffset": 189376,
      "byteStride": 12,
      "name": "floatBufferViews",
      "target": 34962
    },
    {
      "buffer": 0,
      "byteLength": 82000,
      "byteOffset": 345496,
      "byteStride": 16,
      "name": "floatBufferViews",
      "target": 34962
    },
    {
      "buffer": 0,
      "byteLength": 2048,
      "byteOffset": 427496,
      "byteStride": 64,
      "name": "floatBufferViews"
    }
  ],
  "buffers": [
    {
      "byteLength": 429544,
      "uri": "scene.bin"
    }
  ],
  "images": [
    {
      "uri": "textures/Box001__0_baseColor.png"
    }
  ],
  "materials": [
    {
      "doubleSided": true,
      "name": "Box001__0",
      "pbrMetallicRoughness": {
        "baseColorFactor": [
          1,
          1,
          1,
          1
        ],
        "baseColorTexture": {
          "index": 0,
          "texCoord": 0
        },
        "metallicFactor": 0,
        "roughnessFactor": 0.59999999999999998
      }
    },
    {
      "doubleSided": true,
      "emissiveFactor": [
        0,
        0,
        0
      ],
      "name": "03_-_Default",
      "pbrMetallicRoughness": {
        "baseColorFactor": [
          1,
          1,
          1,
          1
        ],
        "baseColorTexture": {
          "index": 0,
          "texCoord": 0
        },
        "metallicFactor": 0,
        "roughnessFactor": 0.89297135959999996
      }
    }
  ],
  "meshes": [
    {
      "name": "Sphere001_03 - Default_0",
      "primitives": [
        {
          "attributes": {
            "JOINTS_0": 9,
            "NORMAL": 1,
            "POSITION": 0,
            "TEXCOORD_0": 2,
            "WEIGHTS_0": 10
          },
          "indices": 3,
          "material": 1,
          "mode": 4
        }
      ]
    },
    {
      "name": "Box001__0",
      "primitives": [
        {
          "attributes": {
            "NORMAL": 5,
            "POSITION": 4,
            "TEXCOORD_0": 6
          },
          "indices": 7,
          "material": 0,
          "mode": 4
        }
      ]
    }
  ],
  "nodes": [
    {
      "children": [
        1
      ],
      "name": "RootNode (gltf orientation matrix)",
      "rotation": [
        -0.70710678118654746,
        -0,
        -0,
        0.70710678118654757
      ]
    },
    {
      "children": [
        2
      ],
      "matrix": [
        1,
        2.832769343193999e-16,
        2.832769343193999e-16,
        0,
        2.832769343193999e-16,
        -1,
        4.8795769672831353e-32,
        0,
        2.832769343193999e-16,
        3.1450057482662597e-32,
        -1,
        0,
        1.4875253806501121e-16,
        -0.00039349374128505588,
        -1.4429978132247925,
        1
      ],
      "name": "RootNode (model correction matrix)"
    },
    {
      "children": [
        3
      ],
      "matrix": [
        1,
        0,
        0,
        0,
        0,
        -1,
        0,
        0,
        0,
        0,
        -1,
        0,
        0,
        0,
        0,
        1
      ],
      "name": "9208bb91f52747288143eec97a837307.fbx"
    },
    {
      "children": [
        4
      ],
      "name": "RootNode"
    },
    {
      "children": [
        5,
        7,
        6,
        39
      ],
      "name": ""
    },
    {
      "children": [
        8,
        37,
        38
      ],
      "name": "_rootJoint"
    },
    {
      "matrix": [
        1.0000000000000004,
        1.0587911840678754e-21,
        -8.4703294725430034e-22,
        0,
        -1.0587911840678717e-21,
        0.99999999999999678,
        -6.9419759659449039e-29,
        0,
        8.4703294725429959e-22,
        6.9419759659450126e-29,
        0.99999999999999956,
        0,
        -1.1580553819291355e-23,
        1.0058516248644817e-21,
        1.1828914880752541,
        1
      ],
      "name": ""
    },
    {
      "mesh": 0,
      "name": "",
      "skin": 0
    },
    {
      "children": [
        9,
        13,
        14,
        18,
        19
      ],
      "name": "CATRigHub001_00",
      "rotation": [
        0.7071068286895752,
        5.3385065257316455e-08,
        0.70710670948028564,
        -5.3385075915457492e-08
      ],
      "translation": [
        -5.1223897356861975e-14,
        1.6317682138833334e-07,
        0.32684376835823059
      ]
    },
    {
      "children": [
        10
      ],
      "name": "CATRigLLeg1_01",
      "rotation": [
        0.052150510251522064,
        0.99805200099945068,
        0.011116493493318558,
        0.032388217747211456
      ],
      "translation": [
        0,
        -1.1487671258691989e-08,
        0.12616643309593201
      ]
    },
    {
      "children": [
        11
      ],
      "name": "CATRigLLeg2_02",
      "rotation": [
        0.048762019723653793,
        -0.0069696381688117981,
        -0.21981717646121979,
        0.97429674863815308
      ],
      "translation": [
        0.12573455274105072,
        2.384185791015625e-07,
        1.0430812835693359e-07
      ]
    },
    {
      "children": [
        12
      ],
      "name": "CATRigLLegAnkle_03",
      "rotation": [
        -0.034349329769611359,
        0.04827456921339035,
        0.40506124496459961,
        0.91236782073974609
      ],
      "translation": [
        0.099882148206233978,
        0,
        -7.4505805969238281e-09
      ]
    },
    {
      "name": "CATRigAnkleBone001_04",
      "rotation": [
        0.00016883267380762845,
        3.0231742442765608e-08,
        0.51488989591598511,
        0.85725629329681396
      ],
      "translation": [
        0.070409893989562988,
        -0.016806164756417274,
        -2.3089349269866943e-05
      ]
    },
    {
      "name": "CATRigLLegUpVectorNode_05",
      "rotation": [
        2.1627705422191195e-21,
        -0,
        -3.1554436208840472e-30,
        1
      ],
      "translation": [
        -0.1248038113117218,
        0.45189878344535828,
        0.11845000088214874
      ]
    },
    {
      "children": [
        15
      ],
      "name": "CATRigRLeg1_06",
      "rotation": [
        0.052150797098875046,
        0.99805194139480591,
        -0.011119283735752106,
        -0.032388117164373398
      ],
      "translation": [
        0,
        -1.1487671258691989e-08,
        -0.12616643309593201
      ]
    },
    {
      "children": [
        16
      ],
      "name": "CATRigRLeg2_07",
      "rotation": [
        -0.048754855990409851,
        0.0069679669104516506,
        -0.21981784701347351,
        0.9742969274520874
      ],
      "translation": [
        0.12573455274105072,
        2.384185791015625e-07,
        -1.0430812835693359e-07
      ]
    },
    {
      "children": [
        17
      ],
      "name": "CATRigRLegAnkle_08",
      "rotation": [
        0.034339882433414459,
        -0.048271212726831436,
        0.40506196022033691,
        0.9123680591583252
      ],
      "translation": [
        0.099882118403911591,
        -1.3877787807814457e-17,
        1.3877787807814457e-17
      ]
    },
    {
      "name": "CATRigAnkleBone001_09",
      "rotation": [
        -0.00016883196076378226,
        -3.0279394991339359e-08,
        0.51488983631134033,
        0.85725635290145874
      ],
      "translation": [
        0.070409879088401794,
        -0.016806147992610931,
        2.3089349269866943e-05
      ]
    },
    {
      "name": "CATRigRLegUpVectorNode_010",
      "rotation": [
        2.1627705422191195e-21,
        -0,
        -3.1554436208840472e-30,
        1
      ],
      "translation": [
        -0.1248038113117218,
        0.45189878344535828,
        -0.11845000088214874
      ]
    },
    {
      "children": [
        20
      ],
      "name": "CATRigSpine1_011",
      "rotation": [
        7.1054298986998436e-15,
        -2.5571745106622509e-14,
        -7.1054273576010019e-15,
        1
      ]
    },
    {
      "children": [
        21
      ],
      "name": "CATRigSpine2_012",
      "rotation": [
        -7.01788361351173e-25,
        -1.230017115586143e-14,
        -2.3665827156630354e-30,
        1
      ],
      "translation": [
        0.17016157507896423,
        -7.1054273576010019e-15,
        4.1860351312648578e-15
      ]
    },
    {
      "children": [
        22,
        26,
        27,
        31,
        32
      ],
      "name": "CATRigHub002_013",
      "rotation": [
        -7.1054273576010019e-15,
        1.3271573950761079e-14,
        7.1054273576010019e-15,
        1
      ],
      "translation": [
        0.17016160488128662,
        0,
        4.1860334371989633e-15
      ]
    },
    {
      "children": [
        23
      ],
      "name": "CATRigLArmCollarbone_014",
      "rotation": [
        3.1434815639386215e-08,
        -0.69760286808013916,
        -2.664525489137759e-08,
        0.7164846658706665
      ],
      "translation": [
        0.0584259033203125,
        9.5187857596101821e-09,
        0.077845290303230286
      ]
    },
    {
      "children": [
        24
      ],
      "name": "CATRigLArm1_015",
      "rotation": [
        0.0015620229532942176,
        -0.41108521819114685,
        -0.036155141890048981,
        0.91087830066680908
      ],
      "translation": [
        0.12743809819221497,
        -1.4210854715202004e-14,
        -5.9604644775390625e-08
      ]
    },
    {
      "children": [
        25
      ],
      "name": "CATRigLArm2_016",
      "rotation": [
        -0.069504432380199432,
        -0.00033459809492342174,
        0.072698123753070831,
        0.99492925405502319
      ],
      "scale": [
        1.0000009536743164,
        0.99999898672103882,
        1
      ],
      "translation": [
        0.22330693900585175,
        4.7776848077774048e-07,
        -7.152557373046875e-07
      ]
    },
    {
      "name": "CATRigLArmPalm_017",
      "rotation": [
        -0.64424031972885132,
        0.023873670026659966,
        -0.030384505167603493,
        0.76384633779525757
      ],
      "scale": [
        1.0000009536743164,
        1,
        1
      ],
      "translation": [
        0.19336339831352234,
        4.9918889999389648e-07,
        -4.76837158203125e-07
      ]
    },
    {
      "name": "CATRigLArmUpVectorNode_018",
      "rotation": [
        0.066834524273872375,
        0.92556560039520264,
        0.06273958832025528,
        -0.36732172966003418
      ],
      "translation": [
        -0.10138893127441406,
        -0.014995106495916843,
        0.35689941048622131
      ]
    },
    {
      "children": [
        28
      ],
      "name": "CATRigRArmCollarbone_019",
      "rotation": [
        -3.1436695024922301e-08,
        0.69760286808013916,
        -2.6643373729484665e-08,
        0.7164846658706665
      ],
      "translation": [
        0.0584259033203125,
        9.5187857596101821e-09,
        -0.077845290303230286
      ]
    },
    {
      "children": [
        29
      ],
      "name": "CATRigRArm1_020",
      "rotation": [
        -0.0015596890589222312,
        0.4110867977142334,
        -0.036157350987195969,
        0.91087764501571655
      ],
      "translation": [
        0.12743809819221497,
        1.4210854715202004e-14,
        5.9604644775390625e-08
      ]
    },
    {
      "children": [
        30
      ],
      "name": "CATRigRArm2_021",
      "rotation": [
        0.069505110383033752,
        0.00033780367812141776,
        0.072695814073085785,
        0.99492937326431274
      ],
      "scale": [
        0.99999898672103882,
        1.0000009536743164,
        1
      ],
      "translation": [
        0.22330695390701294,
        -4.7963112592697144e-07,
        -7.7486038208007812e-07
      ]
    },
    {
      "name": "CATRigRArmPalm_022",
      "rotation": [
        0.64424079656600952,
        -0.023873060941696167,
        -0.030388528481125832,
        0.76384580135345459
      ],
      "translation": [
        0.19336308538913727,
        -5.0663948059082031e-07,
        -5.3644180297851562e-07
      ]
    },
    {
      "name": "CATRigRArmUpVectorNode_023",
      "rotation": [
        0.066836275160312653,
        0.92556494474411011,
        -0.06274086982011795,
        0.36732307076454163
      ],
      "translation": [
        -0.10138946771621704,
        -0.01499556377530098,
        -0.35689878463745117
      ]
    },
    {
      "children": [
        33
      ],
      "name": "CATRigSpine_024",
      "rotation": [
        7.1054298986998436e-15,
        -2.5571745106622509e-14,
        -7.1054273576010019e-15,
        1
      ]
    },
    {
      "children": [
        34,
        35,
        36
      ],
      "name": "CATRigHub003_025",
      "rotation": [
        -7.1054273576010019e-15,
        1.3271573950761079e-14,
        7.1054273576010019e-15,
        1
      ],
      "translation": [
        0.42429232597351074,
        0,
        1.0437736287262356e-14
      ]
    },
    {
      "name": "CATRigHub003Bone001_026",
      "rotation": [
        2.1627713500126865e-21,
        0,
        0,
        1
      ],
      "translation": [
        0.21826171875,
        -0.041870128363370895,
        -0.27075198292732239
      ]
    },
    {
      "name": "CATRigHub003Bone002_027",
      "rotation": [
        2.1627713500126865e-21,
        0,
        0,
        1
      ],
      "translation": [
        0.21826171875,
        -0.041870046406984329,
        0.27099496126174927
      ]
    },
    {
      "name": "CATRigHub003Bone003_028",
      "rotation": [
        2.1627713500126865e-21,
        0,
        0,
        1
      ],
      "translation": [
        -0.11212164163589478,
        0.27399826049804688,
        -4.1372587133992056e-08
      ]
    },
    {
      "name": "CATRigLLegPlatform_029",
      "rotation": [
        0.7071068286895752,
        5.3385065257316455e-08,
        0.70710670948028564,
        -5.3385075915457492e-08
      ],
      "translation": [
        0.10570993274450302,
        -0.019531108438968658,
        -1.2737247779941174e-14
      ]
    },
    {
      "name": "CATRigRLegPlatform_030",
      "rotation": [
        0.7071068286895752,
        5.3385065257316455e-08,
        0.70710670948028564,
        -5.3385075915457492e-08
      ],
      "translation": [
        -0.10570993274450302,
        -0.019531141966581345,
        -1.8348996909563209e-14
      ]
    },
    {
      "children": [
        40
      ],
      "matrix": [
        0.0085689099976053798,
        0.005742496242819947,
        0.021115100770183193,
        0,
        0.0053237292336384967,
        0.01949939647988708,
        -0.0074635574507992148,
        0,
        -0.019344305864489274,
        0.0075049207377971211,
        0.0058092375743103225,
        0,
        0.1288851797580719,
        -0.1594853401184082,
        0.58809995651245117,
        1
      ],
      "name": "Box001"
    },
    {
      "mesh": 1,
      "name": "Box001__0"
    }
  ],
  "samplers": [
    {
      "magFilter": 9729,
      "minFilter": 9987,
      "wrapS": 10497,
      "wrapT": 10497
    }
  ],
  "scene": 0,
  "scenes": [
    {
      "name": "OSG_Scene",
      "nodes": [
        0
      ]
    }
  ],
  "skins": [
    {
      "inverseBindMatrices": 8,
      "joints": [
        5,
        8,
        9,
        10,
        11,
        12,
        13,
        14,
        15,
        16,
        17,
        18,
        19,
        20,
        21,
        22,
        23,
        24,
        25,
        26,
        27,
        28,
        29,
        30,
        31,
        32,
        33,
        34,
        35,
        36,
        37,
        38
      ],
      "skeleton": 5
    }
  ],
  "textures": [
    {
      "sampler": 0,
      "source": 0
    }
  ]
}

