{
  "accessors": [
    {
      "bufferView": 2,
      "componentType": 5126,
      "count": 6273,
      "max": [
        1.2014564275741577,
        0.39923474192619324,
        1.510138988494873
      ],
      "min": [
        -1.2014565467834473,
        -0.38335290551185608,
        0.00012362003326416016
      ],
      "type": "VEC3"
    },
    {
      "bufferView": 2,
      "byteOffset": 75276,
      "componentType": 5126,
      "count": 6273,
      "max": [
        1,
        1,
        1
      ],
      "min": [
        -1,
        -1,
        -1
      ],
      "type": "VEC3"
    },
    {
      "bufferView": 1,
      "componentType": 5126,
      "count": 6273,
      "max": [
        0.8917616605758667,
        1
      ],
      "min": [
        0.125,
        0
      ],
      "type": "VEC2"
    },
    {
      "bufferView": 0,
      "componentType": 5125,
      "count": 10254,
      "max": [
        6272
      ],
      "min": [
        0
      ],
      "type": "SCALAR"
    }
  ],
  "asset": {
    "extras": {
      "author": "SusanKing (https://sketchfab.com/krolzuzannapl)",
      "license": "CC-BY-4.0 (http://creativecommons.org/licenses/by/4.0/)",
      "source": "https://sketchfab.com/3d-models/bench-low-poly-a606688f1ef74049b6a23d759721db63",
      "title": "Bench low poly"
    },
    "generator": "Sketchfab-8.37.0",
    "version": "2.0"
  },
  "bufferViews": [
    {
      "buffer": 0,
      "byteLength": 41016,
      "byteOffset": 0,
      "name": "floatBufferViews",
      "target": 34963
    },
    {
      "buffer": 0,
      "byteLength": 50184,
      "byteOffset": 41016,
      "byteStride": 8,
      "name": "floatBufferViews",
      "target": 34962
    },
    {
      "buffer": 0,
      "byteLength": 150552,
      "byteOffset": 91200,
      "byteStride": 12,
      "name": "floatBufferViews",
      "target": 34962
    }
  ],
  "buffers": [
    {
      "byteLength": 241752,
      "uri": "scene.bin"
    }
  ],
  "materials": [
    {
      "doubleSided": true,
      "emissiveFactor": [
        0,
        0,
        0
      ],
      "name": "Material",
      "pbrMetallicRoughness": {
        "baseColorFactor": [
          0.61517699999999997,
          0.110475,
          0.021241199999999998,
          1
        ],
        "metallicFactor": 0,
        "roughnessFactor": 0.94823445198022049
      }
    }
  ],
  "meshes": [
    {
      "name": "bench_Material_0",
      "primitives": [
        {
          "attributes": {
            "NORMAL": 1,
            "POSITION": 0,
            "TEXCOORD_0": 2
          },
          "indices": 3,
          "material": 0,
          "mode": 4
        }
      ]
    }
  ],
  "nodes": [
    {
      "children": [
        1
      ],
      "name": "RootNode (gltf orientation matrix)",
      "rotation": [
        -0.70710678118654746,
        -0,
        -0,
        0.70710678118654757
      ]
    },
    {
      "children": [
        2
      ],
      "name": "RootNode (model correction matrix)"
    },
    {
      "children": [
        3
      ],
      "matrix": [
        1,
        0,
        0,
        0,
        0,
        0,
        1,
        0,
        0,
        -1,
        0,
        0,
        0,
        0,
        0,
        1
      ],
      "name": "6f6ce489779e4d299bb815400bb4893b.fbx"
    },
    {
      "children": [
        4
      ],
      "name": "RootNode"
    },
    {
      "children": [
        5
      ],
      "matrix": [
        -78.926048278802597,
        9.6656515720076921e-15,
        3.0734937979177098e-05,
        0,
        3.3644116391021995e-05,
        6.5227692503004279e-06,
        86.396697998040068,
        0,
        -2.5294795803581077e-12,
        86.396697998046619,
        -6.5227692407084675e-06,
        0,
        0,
        0,
        0,
        1
      ],
      "name": "bench"
    },
    {
      "mesh": 0,
      "name": "bench_Material_0"
    }
  ],
  "scene": 0,
  "scenes": [
    {
      "name": "OSG_Scene",
      "nodes": [
        0
      ]
    }
  ]
}

